<mxfile host="Electron" modified="2024-09-17T01:55:55.372Z" agent="Mozilla/5.0 (Windows NT 10.0; Win64; x64) AppleWebKit/537.36 (KHTML, like Gecko) draw.io/24.2.5 Chrome/120.0.6099.109 Electron/28.1.0 Safari/537.36" etag="ZeLcjzXtVaSfJ7qTnlz4" version="24.2.5" type="device">
  <diagram name="PÃ¡gina-1" id="JHEhFcPEUxyLUJSRDNK2">
    <mxGraphModel dx="528" dy="609" grid="1" gridSize="10" guides="1" tooltips="1" connect="1" arrows="1" fold="1" page="1" pageScale="1" pageWidth="827" pageHeight="1169" math="0" shadow="0">
      <root>
        <mxCell id="0" />
        <mxCell id="1" parent="0" />
        <mxCell id="b6brWF8GiaM5tG5aIC-t-13" style="edgeStyle=orthogonalEdgeStyle;rounded=0;orthogonalLoop=1;jettySize=auto;html=1;exitX=1;exitY=0.5;exitDx=0;exitDy=0;entryX=0;entryY=0.5;entryDx=0;entryDy=0;" parent="1" source="b6brWF8GiaM5tG5aIC-t-1" target="b6brWF8GiaM5tG5aIC-t-2" edge="1">
          <mxGeometry relative="1" as="geometry" />
        </mxCell>
        <mxCell id="b6brWF8GiaM5tG5aIC-t-1" value="INGRESAR NOMBRE DE CLIENTE" style="rounded=0;whiteSpace=wrap;html=1;" parent="1" vertex="1">
          <mxGeometry x="160" y="230" width="120" height="60" as="geometry" />
        </mxCell>
        <mxCell id="b6brWF8GiaM5tG5aIC-t-12" style="edgeStyle=orthogonalEdgeStyle;rounded=0;orthogonalLoop=1;jettySize=auto;html=1;exitX=1;exitY=0.5;exitDx=0;exitDy=0;entryX=0;entryY=0.5;entryDx=0;entryDy=0;" parent="1" source="b6brWF8GiaM5tG5aIC-t-2" target="b6brWF8GiaM5tG5aIC-t-3" edge="1">
          <mxGeometry relative="1" as="geometry" />
        </mxCell>
        <mxCell id="b6brWF8GiaM5tG5aIC-t-2" value="INGRESACANTIDAD DE COMENSALES" style="rounded=0;whiteSpace=wrap;html=1;" parent="1" vertex="1">
          <mxGeometry x="340" y="230" width="120" height="60" as="geometry" />
        </mxCell>
        <mxCell id="b6brWF8GiaM5tG5aIC-t-11" style="edgeStyle=orthogonalEdgeStyle;rounded=0;orthogonalLoop=1;jettySize=auto;html=1;exitX=1;exitY=0.5;exitDx=0;exitDy=0;entryX=0;entryY=0.5;entryDx=0;entryDy=0;" parent="1" source="b6brWF8GiaM5tG5aIC-t-3" target="b6brWF8GiaM5tG5aIC-t-6" edge="1">
          <mxGeometry relative="1" as="geometry" />
        </mxCell>
        <mxCell id="b6brWF8GiaM5tG5aIC-t-3" value="VERIFICAR DISPONIBILIDAD DE MESAS" style="rounded=0;whiteSpace=wrap;html=1;" parent="1" vertex="1">
          <mxGeometry x="520" y="230" width="120" height="60" as="geometry" />
        </mxCell>
        <mxCell id="b6brWF8GiaM5tG5aIC-t-22" style="edgeStyle=orthogonalEdgeStyle;rounded=0;orthogonalLoop=1;jettySize=auto;html=1;exitX=1;exitY=0.5;exitDx=0;exitDy=0;entryX=0;entryY=0.5;entryDx=0;entryDy=0;" parent="1" source="b6brWF8GiaM5tG5aIC-t-4" edge="1">
          <mxGeometry relative="1" as="geometry">
            <mxPoint x="1110" y="399.5" as="targetPoint" />
          </mxGeometry>
        </mxCell>
        <mxCell id="b6brWF8GiaM5tG5aIC-t-4" value="NOTIFICAR&amp;nbsp; RECHAZO" style="rounded=0;whiteSpace=wrap;html=1;" parent="1" vertex="1">
          <mxGeometry x="884" y="370" width="124" height="60" as="geometry" />
        </mxCell>
        <mxCell id="b6brWF8GiaM5tG5aIC-t-5" value="EMPLEADO.&lt;div&gt;RECEPCIONISTA&lt;/div&gt;" style="text;html=1;align=center;verticalAlign=middle;whiteSpace=wrap;rounded=0;rotation=-90;" parent="1" vertex="1">
          <mxGeometry x="10" y="245" width="60" height="30" as="geometry" />
        </mxCell>
        <mxCell id="b6brWF8GiaM5tG5aIC-t-9" style="edgeStyle=orthogonalEdgeStyle;rounded=0;orthogonalLoop=1;jettySize=auto;html=1;exitX=0.5;exitY=0;exitDx=0;exitDy=0;entryX=0;entryY=0.5;entryDx=0;entryDy=0;" parent="1" source="b6brWF8GiaM5tG5aIC-t-6" target="b6brWF8GiaM5tG5aIC-t-8" edge="1">
          <mxGeometry relative="1" as="geometry" />
        </mxCell>
        <mxCell id="qtFfuxM--U7lCQM5i_Wh-1" value="SI" style="edgeLabel;html=1;align=center;verticalAlign=middle;resizable=0;points=[];" vertex="1" connectable="0" parent="b6brWF8GiaM5tG5aIC-t-9">
          <mxGeometry x="-0.068" y="1" relative="1" as="geometry">
            <mxPoint as="offset" />
          </mxGeometry>
        </mxCell>
        <mxCell id="b6brWF8GiaM5tG5aIC-t-10" style="edgeStyle=orthogonalEdgeStyle;rounded=0;orthogonalLoop=1;jettySize=auto;html=1;exitX=0.5;exitY=1;exitDx=0;exitDy=0;entryX=0;entryY=0.5;entryDx=0;entryDy=0;" parent="1" source="b6brWF8GiaM5tG5aIC-t-6" target="b6brWF8GiaM5tG5aIC-t-4" edge="1">
          <mxGeometry relative="1" as="geometry" />
        </mxCell>
        <mxCell id="qtFfuxM--U7lCQM5i_Wh-2" value="NO" style="edgeLabel;html=1;align=center;verticalAlign=middle;resizable=0;points=[];" vertex="1" connectable="0" parent="b6brWF8GiaM5tG5aIC-t-10">
          <mxGeometry x="-0.1176" y="-2" relative="1" as="geometry">
            <mxPoint as="offset" />
          </mxGeometry>
        </mxCell>
        <mxCell id="b6brWF8GiaM5tG5aIC-t-6" value="DISPONIBILIDAD??" style="rhombus;whiteSpace=wrap;html=1;" parent="1" vertex="1">
          <mxGeometry x="740" y="220" width="80" height="80" as="geometry" />
        </mxCell>
        <mxCell id="qtFfuxM--U7lCQM5i_Wh-5" style="edgeStyle=orthogonalEdgeStyle;rounded=0;orthogonalLoop=1;jettySize=auto;html=1;exitX=1;exitY=0.5;exitDx=0;exitDy=0;entryX=0;entryY=0.5;entryDx=0;entryDy=0;" edge="1" parent="1" source="b6brWF8GiaM5tG5aIC-t-8" target="qtFfuxM--U7lCQM5i_Wh-3">
          <mxGeometry relative="1" as="geometry" />
        </mxCell>
        <mxCell id="b6brWF8GiaM5tG5aIC-t-8" value="NOTIFICAR CONFIRMACION" style="rounded=0;whiteSpace=wrap;html=1;" parent="1" vertex="1">
          <mxGeometry x="886" y="100" width="120" height="60" as="geometry" />
        </mxCell>
        <mxCell id="qtFfuxM--U7lCQM5i_Wh-8" style="edgeStyle=orthogonalEdgeStyle;rounded=0;orthogonalLoop=1;jettySize=auto;html=1;exitX=1;exitY=0.5;exitDx=0;exitDy=0;entryX=0;entryY=0.5;entryDx=0;entryDy=0;" edge="1" parent="1" source="b6brWF8GiaM5tG5aIC-t-14" target="b6brWF8GiaM5tG5aIC-t-26">
          <mxGeometry relative="1" as="geometry" />
        </mxCell>
        <mxCell id="b6brWF8GiaM5tG5aIC-t-14" value="MODIFICAR MATRIZ &quot;DATOS DE SALON&quot;" style="rounded=0;whiteSpace=wrap;html=1;" parent="1" vertex="1">
          <mxGeometry x="1460" y="100" width="120" height="60" as="geometry" />
        </mxCell>
        <mxCell id="b6brWF8GiaM5tG5aIC-t-25" style="edgeStyle=orthogonalEdgeStyle;rounded=0;orthogonalLoop=1;jettySize=auto;html=1;exitX=1;exitY=0.5;exitDx=0;exitDy=0;entryX=0;entryY=0.5;entryDx=0;entryDy=0;" parent="1" source="b6brWF8GiaM5tG5aIC-t-23" target="b6brWF8GiaM5tG5aIC-t-1" edge="1">
          <mxGeometry relative="1" as="geometry" />
        </mxCell>
        <mxCell id="b6brWF8GiaM5tG5aIC-t-23" value="" style="ellipse;html=1;shape=startState;fillColor=#000000;strokeColor=#ff0000;" parent="1" vertex="1">
          <mxGeometry x="90" y="245" width="30" height="30" as="geometry" />
        </mxCell>
        <mxCell id="b6brWF8GiaM5tG5aIC-t-26" value="" style="ellipse;html=1;shape=endState;fillColor=#000000;strokeColor=#ff0000;" parent="1" vertex="1">
          <mxGeometry x="1860" y="115" width="30" height="30" as="geometry" />
        </mxCell>
        <mxCell id="b6brWF8GiaM5tG5aIC-t-27" value="" style="ellipse;html=1;shape=endState;fillColor=#000000;strokeColor=#ff0000;" parent="1" vertex="1">
          <mxGeometry x="1110" y="385" width="30" height="30" as="geometry" />
        </mxCell>
        <mxCell id="b6brWF8GiaM5tG5aIC-t-28" value="Fin de la funcion, vuelta al programa principal" style="text;align=center;fontStyle=1;verticalAlign=middle;spacingLeft=3;spacingRight=3;strokeColor=none;rotatable=0;points=[[0,0.5],[1,0.5]];portConstraint=eastwest;html=1;" parent="1" vertex="1">
          <mxGeometry x="2010" y="115" width="80" height="26" as="geometry" />
        </mxCell>
        <mxCell id="b6brWF8GiaM5tG5aIC-t-29" value="Fin de la funcion, vuelta al programa principal" style="text;align=center;fontStyle=1;verticalAlign=middle;spacingLeft=3;spacingRight=3;strokeColor=none;rotatable=0;points=[[0,0.5],[1,0.5]];portConstraint=eastwest;html=1;" parent="1" vertex="1">
          <mxGeometry x="1250" y="385" width="80" height="26" as="geometry" />
        </mxCell>
        <mxCell id="qtFfuxM--U7lCQM5i_Wh-6" style="edgeStyle=orthogonalEdgeStyle;rounded=0;orthogonalLoop=1;jettySize=auto;html=1;exitX=1;exitY=0.5;exitDx=0;exitDy=0;entryX=0;entryY=0.5;entryDx=0;entryDy=0;" edge="1" parent="1" source="qtFfuxM--U7lCQM5i_Wh-3" target="qtFfuxM--U7lCQM5i_Wh-4">
          <mxGeometry relative="1" as="geometry" />
        </mxCell>
        <mxCell id="qtFfuxM--U7lCQM5i_Wh-3" value="MOSTRAR MESAS DISPONIBLES(funcion ver mesas)" style="rounded=0;whiteSpace=wrap;html=1;" vertex="1" parent="1">
          <mxGeometry x="1070" y="100" width="120" height="60" as="geometry" />
        </mxCell>
        <mxCell id="qtFfuxM--U7lCQM5i_Wh-7" style="edgeStyle=orthogonalEdgeStyle;rounded=0;orthogonalLoop=1;jettySize=auto;html=1;exitX=1;exitY=0.5;exitDx=0;exitDy=0;entryX=0;entryY=0.5;entryDx=0;entryDy=0;" edge="1" parent="1" source="qtFfuxM--U7lCQM5i_Wh-4" target="b6brWF8GiaM5tG5aIC-t-14">
          <mxGeometry relative="1" as="geometry" />
        </mxCell>
        <mxCell id="qtFfuxM--U7lCQM5i_Wh-4" value="ELEGIR MESA" style="rounded=0;whiteSpace=wrap;html=1;" vertex="1" parent="1">
          <mxGeometry x="1280" y="100" width="120" height="60" as="geometry" />
        </mxCell>
      </root>
    </mxGraphModel>
  </diagram>
</mxfile>
